<svg xmlns="http://www.w3.org/2000/svg" width="220" height="32" viewBox="0 0 220 32" fill="none">
  <path d="M19.6595 30.7892V17.8761H2.16241V30.7892H0V1.35449H2.16241V15.7206H19.6595V1.35449H21.822V30.7892H19.6595Z" fill="#272725"/>
  <path d="M45.8463 3.51691H29.3587V15.7206H43.0972V17.8761H29.3587V28.6268H46.1942V30.7892H27.2031V1.35449H45.8463V3.51691Z" fill="#272725"/>
  <path d="M69.0951 30.7892H50.8477V1.35449H53.0032V28.6268H69.0951V30.7892Z" fill="#272725"/>
  <path d="M75.6644 1.35449V16.0753V30.7892H74.5866H73.502V16.0753V1.35449H74.5866H75.6644Z" fill="#272725"/>
  <path d="M114.437 7.7937C114.437 10.188 114.982 11.9957 121.381 14.3082C126.402 16.15 130.488 18.2306 130.488 23.3331C130.488 27.5351 126.954 31.3756 121.62 31.3756C116.285 31.3756 113.611 28.4696 111.729 25.8843L113.379 24.5882C114.321 25.8434 116.756 29.22 121.777 29.22C125.194 29.22 128.332 26.5119 128.332 23.2921C128.332 19.6017 124.996 18.0328 119.696 16.0682C115.221 14.3833 112.281 12.3777 112.281 7.82781C112.281 4.4921 115.378 0.760742 120.365 0.760742C123.346 0.760742 126.013 1.07453 129.232 4.3352L127.391 5.70632C125.269 3.58484 123.352 2.92316 120.365 2.92316C116.599 2.92316 114.437 5.54943 114.437 7.78688" fill="#272725"/>
  <path d="M85.4536 25.2977C83.1752 22.9306 81.7904 19.6768 81.7904 16.075C81.7904 8.81694 87.4045 2.88906 94.6626 2.88906C98.3325 2.88906 101.586 4.40343 103.913 6.83871L105.427 5.32434C102.726 2.51388 98.9396 0.767578 94.6557 0.767578C86.1766 0.767578 79.6621 7.59589 79.6621 16.075C79.6621 20.277 81.2652 24.0766 83.9119 26.8325L85.4467 25.2977H85.4536Z" fill="#F26524"/>
  <path d="M106.847 7.03613L105.305 8.57779C106.737 10.7061 107.57 13.2914 107.57 16.0746C107.57 23.3327 101.921 29.1787 94.6565 29.1787C91.812 29.1787 89.2266 28.2783 87.1324 26.7571L85.5703 28.3192C88.067 30.2429 91.198 31.382 94.6565 31.382C103.136 31.382 109.684 24.5537 109.684 16.0746C109.684 12.6912 108.641 9.57373 106.847 7.04295" fill="#F26524"/>
  <path d="M139.752 1.29297H138.947V12.7735H139.752V1.29297Z" fill="#F26524"/>
  <path d="M143.387 4.4107H144.048L144.117 5.69996H144.171C144.601 5.27021 145.044 4.91549 145.495 4.62899C145.952 4.34248 146.463 4.20605 147.043 4.20605C147.916 4.20605 148.551 4.46527 148.96 4.99053C149.369 5.51578 149.567 6.32072 149.567 7.41216V12.7807H148.803V7.5213C148.803 6.62768 148.653 5.966 148.36 5.54307C148.066 5.12013 147.575 4.90867 146.886 4.90867C146.388 4.90867 145.931 5.03828 145.529 5.29749C145.119 5.55671 144.662 5.95236 144.151 6.47079V12.7807H143.387V4.4107Z" fill="#F26524"/>
  <path d="M151.438 4.41016H152.277L154.159 9.65588C154.289 10.0652 154.425 10.4676 154.575 10.8769C154.725 11.2862 154.869 11.675 154.992 12.0639H155.06C155.203 11.6819 155.339 11.2862 155.489 10.8769C155.633 10.4676 155.776 10.0652 155.919 9.65588L157.802 4.41016H158.586L155.483 12.7733H154.575L151.438 4.41016Z" fill="#F26524"/>
  <path d="M166.336 8.10696C166.336 7.02916 166.117 6.2174 165.674 5.67851C165.231 5.13961 164.637 4.86675 163.88 4.86675C163.518 4.86675 163.177 4.94178 162.85 5.09186C162.522 5.24193 162.229 5.46022 161.97 5.73308C161.711 6.01276 161.492 6.35383 161.329 6.7563C161.158 7.15877 161.056 7.60899 161.008 8.10696H166.343H166.336ZM160.224 8.61175C160.224 7.9296 160.326 7.30884 160.531 6.76312C160.735 6.2174 161.008 5.75354 161.349 5.37836C161.69 5.00318 162.079 4.70985 162.516 4.50521C162.952 4.30056 163.402 4.19824 163.866 4.19824C164.862 4.19824 165.647 4.5325 166.22 5.20782C166.786 5.88315 167.072 6.83134 167.072 8.06603V8.37982C167.072 8.48214 167.059 8.59128 167.038 8.69361H161.008C161.022 9.21886 161.104 9.70319 161.254 10.1466C161.404 10.5968 161.615 10.9788 161.888 11.2994C162.161 11.62 162.488 11.8656 162.87 12.0498C163.252 12.2271 163.682 12.3226 164.16 12.3226C164.637 12.3226 165.019 12.2544 165.387 12.1248C165.756 11.9952 166.097 11.811 166.404 11.5791L166.718 12.1726C166.383 12.3704 166.008 12.5546 165.613 12.7319C165.21 12.9093 164.705 12.9911 164.085 12.9911C163.553 12.9911 163.048 12.8888 162.577 12.6978C162.106 12.5 161.697 12.2135 161.349 11.8383C161.001 11.4631 160.722 10.9993 160.524 10.4604C160.326 9.92147 160.217 9.30754 160.217 8.61857" fill="#F26524"/>
  <path d="M169.263 11.2594C169.624 11.5596 170.006 11.812 170.416 12.0166C170.825 12.2213 171.33 12.3236 171.93 12.3236C172.592 12.3236 173.09 12.1599 173.417 11.8256C173.751 11.4914 173.915 11.1094 173.915 10.666C173.915 10.4068 173.854 10.1817 173.731 9.98383C173.608 9.78601 173.451 9.61547 173.253 9.47904C173.055 9.33579 172.837 9.21982 172.598 9.11068C172.36 9.00836 172.121 8.90603 171.875 8.81735C171.562 8.70139 171.248 8.5786 170.927 8.44899C170.607 8.31939 170.32 8.16931 170.068 7.98513C169.815 7.80095 169.604 7.58949 169.447 7.33709C169.29 7.09152 169.215 6.78455 169.215 6.42301C169.215 6.12286 169.27 5.83636 169.386 5.55668C169.501 5.28382 169.679 5.04507 169.911 4.84042C170.143 4.63578 170.422 4.47889 170.757 4.36292C171.091 4.24695 171.473 4.19238 171.916 4.19238C172.36 4.19238 172.789 4.27424 173.212 4.43796C173.635 4.60167 173.997 4.81314 174.304 5.06553L173.888 5.60443C173.608 5.39297 173.315 5.21561 173.001 5.07236C172.687 4.9291 172.312 4.85407 171.889 4.85407C171.562 4.85407 171.282 4.895 171.05 4.98368C170.818 5.07236 170.627 5.1815 170.463 5.32475C170.306 5.468 170.19 5.6249 170.115 5.8159C170.04 6.00008 169.999 6.18426 169.999 6.37526C169.999 6.62083 170.054 6.82548 170.163 6.99602C170.272 7.16655 170.422 7.30981 170.607 7.43941C170.791 7.56902 171.002 7.67817 171.241 7.78049C171.48 7.88281 171.718 7.97831 171.964 8.06699C172.291 8.1966 172.612 8.31939 172.94 8.44899C173.267 8.5786 173.56 8.7355 173.819 8.91968C174.079 9.10386 174.29 9.33579 174.454 9.60865C174.618 9.88151 174.699 10.2226 174.699 10.6251C174.699 10.9388 174.638 11.239 174.515 11.5255C174.392 11.812 174.208 12.0576 173.97 12.2759C173.724 12.4941 173.431 12.6647 173.083 12.7875C172.735 12.9171 172.332 12.9785 171.882 12.9785C171.255 12.9785 170.682 12.8625 170.156 12.6374C169.631 12.4123 169.188 12.1394 168.812 11.8256L169.263 11.2526V11.2594Z" fill="#F26524"/>
  <path d="M177.624 5.07257H176.314V4.4791L177.638 4.41089L177.74 1.98926H178.402V4.41089H180.823V5.07257H178.402V10.5229C178.402 10.789 178.422 11.0277 178.463 11.246C178.504 11.4643 178.579 11.6485 178.682 11.8054C178.784 11.9623 178.927 12.0851 179.111 12.1737C179.289 12.2624 179.527 12.3034 179.814 12.3034C179.978 12.3034 180.155 12.2761 180.346 12.2283C180.537 12.1737 180.707 12.1124 180.858 12.0441L181.069 12.6717C180.823 12.7672 180.578 12.8423 180.339 12.8968C180.094 12.9582 179.889 12.9855 179.712 12.9855C179.302 12.9855 178.968 12.9241 178.702 12.8013C178.436 12.6785 178.218 12.508 178.054 12.2897C177.89 12.0714 177.781 11.7986 177.713 11.4916C177.651 11.1778 177.617 10.8367 177.617 10.4616V5.07939L177.624 5.07257Z" fill="#F26524"/>
  <path d="M183.566 4.4107H184.228L184.296 5.69996H184.351C184.726 5.27021 185.135 4.91549 185.599 4.62899C186.056 4.34248 186.52 4.20605 186.984 4.20605C187.659 4.20605 188.178 4.36295 188.532 4.66992C188.894 4.97688 189.146 5.39299 189.296 5.91825C189.781 5.39299 190.258 4.97688 190.715 4.66992C191.172 4.36295 191.65 4.20605 192.134 4.20605C193.805 4.20605 194.645 5.27703 194.645 7.41216V12.7807H193.86V7.5213C193.86 6.62768 193.71 5.966 193.41 5.54307C193.11 5.12013 192.639 4.90867 191.998 4.90867C191.241 4.90867 190.408 5.43392 189.487 6.47761V12.7875H188.723V7.52812C188.723 6.63451 188.573 5.97282 188.273 5.54989C187.973 5.12696 187.496 4.91549 186.841 4.91549C186.084 4.91549 185.251 5.44074 184.33 6.48443V12.7943H183.566V4.4107Z" fill="#F26524"/>
  <path d="M203.225 8.10696C203.225 7.02916 203.007 6.2174 202.564 5.67851C202.12 5.13961 201.527 4.86675 200.77 4.86675C200.408 4.86675 200.067 4.94178 199.74 5.09186C199.412 5.24193 199.119 5.46022 198.86 5.73308C198.6 6.01276 198.382 6.35383 198.218 6.7563C198.048 7.15877 197.945 7.60899 197.898 8.10696H203.232H203.225ZM197.106 8.61175C197.106 7.9296 197.209 7.30884 197.413 6.76312C197.618 6.2174 197.891 5.75354 198.232 5.37836C198.573 5.00318 198.962 4.70985 199.398 4.50521C199.835 4.30056 200.285 4.19824 200.749 4.19824C201.745 4.19824 202.53 4.5325 203.103 5.20782C203.669 5.88315 203.955 6.83134 203.955 8.06603V8.37982C203.955 8.48214 203.942 8.59128 203.921 8.69361H197.891C197.905 9.21886 197.986 9.70319 198.136 10.1466C198.287 10.5968 198.498 10.9788 198.771 11.2994C199.044 11.62 199.371 11.8656 199.753 12.0498C200.135 12.2271 200.565 12.3226 201.042 12.3226C201.52 12.3226 201.902 12.2544 202.27 12.1248C202.639 11.9952 202.98 11.811 203.287 11.5791L203.6 12.1726C203.266 12.3704 202.898 12.5546 202.495 12.7319C202.093 12.9093 201.588 12.9911 200.967 12.9911C200.435 12.9911 199.931 12.8888 199.46 12.6978C198.989 12.5 198.58 12.2135 198.232 11.8383C197.884 11.4631 197.604 10.9993 197.407 10.4604C197.209 9.92147 197.1 9.30754 197.1 8.61857" fill="#F26524"/>
  <path d="M206.568 4.4107H207.23L207.298 5.69996H207.353C207.783 5.27021 208.226 4.91549 208.676 4.62899C209.133 4.34248 209.645 4.20605 210.225 4.20605C211.098 4.20605 211.732 4.46527 212.142 4.99053C212.551 5.51578 212.749 6.32072 212.749 7.41216V12.7807H211.985V7.5213C211.985 6.62768 211.835 5.966 211.541 5.54307C211.248 5.12013 210.757 4.90867 210.068 4.90867C209.57 4.90867 209.113 5.03828 208.71 5.29749C208.301 5.55671 207.844 5.95236 207.332 6.47079V12.7807H206.568V4.4107Z" fill="#F26524"/>
  <path d="M216.556 5.07257H215.246V4.4791L216.569 4.41089L216.672 1.98926H217.333V4.41089H219.755V5.07257H217.333V10.5229C217.333 10.789 217.354 11.0277 217.395 11.246C217.436 11.4643 217.511 11.6485 217.613 11.8054C217.715 11.9623 217.859 12.0851 218.043 12.1737C218.22 12.2624 218.459 12.3034 218.746 12.3034C218.909 12.3034 219.087 12.2761 219.278 12.2283C219.469 12.1737 219.639 12.1124 219.789 12.0441L220.001 12.6717C219.755 12.7672 219.51 12.8423 219.271 12.8968C219.025 12.9582 218.821 12.9855 218.643 12.9855C218.234 12.9855 217.9 12.9241 217.634 12.8013C217.368 12.6785 217.149 12.508 216.986 12.2897C216.822 12.0714 216.713 11.7986 216.644 11.4916C216.583 11.1778 216.549 10.8367 216.549 10.4616V5.07939L216.556 5.07257Z" fill="#F26524"/>
  <path d="M141.887 25.2161C143.061 25.2161 143.934 25.0046 144.5 24.5885C145.066 24.1724 145.353 23.4902 145.353 22.5489C145.353 22.0577 145.278 21.6553 145.134 21.3346C144.991 21.014 144.773 20.7548 144.493 20.557C144.207 20.3592 143.845 20.2227 143.415 20.1409C142.979 20.059 142.474 20.0181 141.887 20.0181H139.745V25.2093H141.887V25.2161ZM138.947 19.3428H142.085C142.726 19.3428 143.293 19.3973 143.804 19.5065C144.309 19.6156 144.739 19.7998 145.093 20.0522C145.448 20.3114 145.721 20.6389 145.905 21.0481C146.089 21.4574 146.185 21.9554 146.185 22.5489C146.185 23.6744 145.823 24.5135 145.107 25.066C144.384 25.6185 143.381 25.8914 142.092 25.8914H139.759V30.8233H138.954V19.3428H138.947Z" fill="#F26524"/>
  <path d="M148.354 28.7022C148.354 29.3093 148.531 29.7391 148.879 29.9914C149.227 30.2507 149.643 30.3735 150.114 30.3735C150.584 30.3735 151.069 30.2575 151.505 30.0256C151.949 29.7936 152.426 29.4594 152.951 29.016V26.1782C152.092 26.2806 151.369 26.4102 150.782 26.5602C150.196 26.7103 149.718 26.8877 149.363 27.0991C149.002 27.3106 148.743 27.5494 148.586 27.8154C148.429 28.0814 148.347 28.3816 148.347 28.7022M147.556 28.7363C147.556 27.8222 147.992 27.1128 148.865 26.6285C149.739 26.1373 151.103 25.7894 152.958 25.5848C152.972 25.271 152.951 24.9572 152.897 24.6366C152.842 24.316 152.747 24.0295 152.604 23.7839C152.46 23.5315 152.256 23.3337 151.996 23.1768C151.737 23.0199 151.403 22.9448 150.994 22.9448C150.428 22.9448 149.909 23.054 149.445 23.2723C148.981 23.4906 148.606 23.7089 148.326 23.9203L147.979 23.3473C148.129 23.245 148.313 23.129 148.524 22.9994C148.743 22.8698 148.975 22.7538 149.241 22.6515C149.5 22.5492 149.793 22.4605 150.1 22.3787C150.414 22.3036 150.741 22.2627 151.076 22.2627C151.574 22.2627 151.996 22.3446 152.331 22.5151C152.665 22.6856 152.938 22.9107 153.149 23.2041C153.361 23.4974 153.504 23.8316 153.593 24.2205C153.681 24.6093 153.722 25.0322 153.722 25.4824V30.8305H153.074L152.986 29.7527H152.951C152.522 30.0869 152.058 30.3871 151.567 30.6531C151.076 30.9192 150.55 31.0488 149.991 31.0488C149.657 31.0488 149.343 31.001 149.05 30.9055C148.756 30.81 148.497 30.6736 148.272 30.4894C148.047 30.3052 147.869 30.0665 147.74 29.7732C147.61 29.4798 147.549 29.1388 147.549 28.7431" fill="#F26524"/>
  <path d="M156.805 22.4663H157.466L157.535 24.0148H157.589C157.869 23.4896 158.21 23.0666 158.612 22.746C159.015 22.4186 159.465 22.2549 159.963 22.2549C160.127 22.2549 160.27 22.2685 160.4 22.289C160.529 22.3095 160.659 22.3572 160.802 22.4254L160.625 23.1212C160.488 23.0666 160.366 23.0257 160.256 23.0052C160.154 22.9848 160.018 22.978 159.854 22.978C159.479 22.978 159.09 23.1349 158.681 23.4555C158.264 23.7761 157.896 24.3286 157.576 25.1199V30.8159H156.812V22.4527L156.805 22.4663Z" fill="#F26524"/>
  <path d="M163.13 23.1292H161.82V22.5357L163.144 22.4675L163.246 20.0459H163.908V22.4675H166.329V23.1292H163.908V28.5796C163.908 28.8456 163.928 29.0844 163.969 29.3027C164.01 29.5141 164.085 29.7051 164.187 29.862C164.29 30.0189 164.433 30.1417 164.617 30.2304C164.794 30.3191 165.033 30.36 165.32 30.36C165.483 30.36 165.661 30.3327 165.852 30.285C166.043 30.2304 166.213 30.169 166.363 30.1008L166.575 30.7284C166.329 30.8239 166.084 30.8989 165.845 30.9535C165.599 31.0149 165.395 31.0421 165.217 31.0421C164.808 31.0421 164.474 30.9808 164.208 30.858C163.942 30.7352 163.724 30.5646 163.56 30.3464C163.396 30.1281 163.287 29.8552 163.219 29.5482C163.157 29.2344 163.123 28.8934 163.123 28.5182V23.136L163.13 23.1292Z" fill="#F26524"/>
  <path d="M168.9 22.4663H169.562L169.63 23.7556H169.685C170.115 23.3259 170.558 22.9711 171.008 22.6846C171.465 22.3981 171.977 22.2549 172.557 22.2549C173.43 22.2549 174.064 22.5141 174.474 23.0394C174.883 23.5646 175.081 24.3695 175.081 25.461V30.8295H174.317V25.5701C174.317 24.6765 174.167 24.0148 173.873 23.5919C173.58 23.169 173.089 22.9575 172.4 22.9575C171.902 22.9575 171.445 23.0871 171.042 23.3463C170.633 23.6055 170.176 24.0012 169.664 24.5196V30.8295H168.9V22.4663Z" fill="#F26524"/>
  <path d="M183.498 26.1577C183.498 25.0799 183.279 24.2682 182.836 23.7293C182.393 23.1904 181.799 22.9175 181.042 22.9175C180.681 22.9175 180.339 22.9926 180.012 23.1426C179.685 23.2927 179.391 23.511 179.132 23.7839C178.873 24.0635 178.655 24.4046 178.491 24.8071C178.32 25.2096 178.218 25.6598 178.17 26.1577H183.505H183.498ZM177.386 26.6625C177.386 25.9804 177.488 25.3596 177.693 24.8139C177.897 24.2682 178.17 23.8043 178.511 23.4291C178.852 23.054 179.241 22.7606 179.678 22.556C180.114 22.3513 180.565 22.249 181.028 22.249C182.024 22.249 182.809 22.5833 183.382 23.2586C183.948 23.9339 184.234 24.8821 184.234 26.1168V26.4306C184.234 26.5329 184.221 26.6421 184.2 26.7444H178.17C178.184 27.2696 178.266 27.754 178.416 28.1974C178.566 28.6476 178.777 29.0296 179.05 29.3502C179.323 29.6708 179.65 29.9164 180.032 30.1006C180.414 30.2779 180.844 30.3734 181.322 30.3734C181.799 30.3734 182.181 30.3052 182.55 30.1756C182.918 30.0392 183.259 29.8618 183.566 29.6299L183.88 30.2233C183.546 30.4212 183.17 30.6054 182.775 30.7827C182.372 30.9601 181.867 31.0419 181.247 31.0419C180.715 31.0419 180.21 30.9464 179.739 30.7486C179.268 30.5508 178.859 30.2643 178.511 29.8891C178.163 29.5139 177.884 29.0501 177.686 28.5112C177.488 27.9723 177.379 27.3583 177.379 26.6694" fill="#F26524"/>
  <path d="M186.67 22.4663H187.332L187.4 24.0148H187.454C187.734 23.4896 188.075 23.0666 188.478 22.746C188.88 22.4186 189.33 22.2549 189.828 22.2549C189.992 22.2549 190.135 22.2685 190.265 22.289C190.394 22.3095 190.524 22.3572 190.667 22.4254L190.49 23.1212C190.354 23.0666 190.231 23.0257 190.122 23.0052C190.019 22.9848 189.883 22.978 189.719 22.978C189.344 22.978 188.955 23.1349 188.546 23.4555C188.13 23.7761 187.761 24.3286 187.441 25.1199V30.8159H186.677V22.4527L186.67 22.4663Z" fill="#F26524"/>
  <path d="M191.86 29.3161C192.222 29.6163 192.604 29.8687 193.013 30.0733C193.423 30.278 193.927 30.3803 194.528 30.3803C195.189 30.3803 195.687 30.2166 196.015 29.8823C196.349 29.548 196.513 29.166 196.513 28.7227C196.513 28.4703 196.451 28.2451 196.328 28.0405C196.206 27.8427 196.049 27.6721 195.851 27.5357C195.653 27.3925 195.435 27.2765 195.196 27.1673C194.957 27.065 194.719 26.9627 194.473 26.874C194.159 26.7581 193.845 26.6353 193.525 26.5057C193.204 26.3761 192.918 26.226 192.665 26.0418C192.406 25.8644 192.201 25.6462 192.045 25.4006C191.888 25.1482 191.813 24.848 191.813 24.4865C191.813 24.1864 191.867 23.8999 191.983 23.627C192.099 23.3541 192.276 23.1154 192.508 22.9107C192.74 22.7061 193.02 22.5492 193.354 22.4332C193.689 22.3173 194.071 22.2627 194.514 22.2627C194.957 22.2627 195.387 22.3446 195.81 22.5083C196.233 22.672 196.594 22.8766 196.901 23.1358L196.485 23.6747C196.206 23.4633 195.912 23.2859 195.599 23.1427C195.285 22.9994 194.91 22.9244 194.487 22.9244C194.159 22.9244 193.88 22.9653 193.648 23.054C193.416 23.1427 193.225 23.2518 193.061 23.3951C192.904 23.5383 192.788 23.6952 192.713 23.8862C192.638 24.0704 192.597 24.2546 192.597 24.4456C192.597 24.6911 192.652 24.8958 192.761 25.0663C192.87 25.2369 193.02 25.3801 193.204 25.5097C193.388 25.6393 193.6 25.7485 193.839 25.8508C194.077 25.9531 194.316 26.0486 194.562 26.1373C194.889 26.2669 195.21 26.3897 195.537 26.5193C195.865 26.6489 196.158 26.8058 196.417 26.99C196.676 27.1742 196.888 27.4061 197.052 27.679C197.215 27.9518 197.297 28.2929 197.297 28.6954C197.297 29.0092 197.236 29.3093 197.113 29.5958C196.99 29.8823 196.806 30.1279 196.567 30.3462C196.322 30.5645 196.028 30.735 195.68 30.8578C195.333 30.9874 194.93 31.0488 194.48 31.0488C193.852 31.0488 193.279 30.9328 192.754 30.7077C192.229 30.4826 191.785 30.2097 191.41 29.8959L191.86 29.3229V29.3161Z" fill="#F26524"/>
</svg>